<svg width="2000" height="2000" viewBox="0 0 2000 2000" fill="none" xmlns="http://www.w3.org/2000/svg">
<g clip-path="url(#clip0_122_2)">
<rect width="2000" height="2000" rx="1000" fill="#0D6EFD"/>
<path d="M1155.5 751.5C1155.5 798.167 1144.25 841.917 1121.75 882.75C1100.08 923.583 1065.5 956.5 1018 981.5C971.333 1006.5 912.167 1019 840.5 1019H694.25V1354H519.25V481.5H840.5C908 481.5 965.5 493.167 1013 516.5C1060.5 539.833 1095.92 571.917 1119.25 612.75C1143.42 653.583 1155.5 699.833 1155.5 751.5ZM833 877.75C881.333 877.75 917.167 866.917 940.5 845.25C963.833 822.75 975.5 791.5 975.5 751.5C975.5 666.5 928 624 833 624H694.25V877.75H833Z" fill="white"/>
<path d="M760.25 1172.25C760.25 1102.25 774 1040.17 801.5 986C829.833 931.833 868.167 890.167 916.5 861C964.833 831.833 1018.58 817.25 1077.75 817.25C1122.75 817.25 1165.67 827.25 1206.5 847.25C1247.33 866.417 1279.83 892.25 1304 924.75V596H1481.5V1521H1304V1418.5C1282.33 1452.67 1251.92 1480.17 1212.75 1501C1173.58 1521.83 1128.17 1532.25 1076.5 1532.25C1018.17 1532.25 964.833 1517.25 916.5 1487.25C868.167 1457.25 829.833 1415.17 801.5 1361C774 1306 760.25 1243.08 760.25 1172.25ZM1305.25 1174.75C1305.25 1132.25 1296.92 1096 1280.25 1066C1263.58 1035.17 1241.08 1011.83 1212.75 996C1184.42 979.333 1154 971 1121.5 971C1089 971 1059 978.917 1031.5 994.75C1004 1010.58 981.5 1033.92 964 1064.75C947.333 1094.75 939 1130.58 939 1172.25C939 1213.92 947.333 1250.58 964 1282.25C981.5 1313.08 1004 1336.83 1031.5 1353.5C1059.83 1370.17 1089.83 1378.5 1121.5 1378.5C1154 1378.5 1184.42 1370.58 1212.75 1354.75C1241.08 1338.08 1263.58 1314.75 1280.25 1284.75C1296.92 1253.92 1305.25 1217.25 1305.25 1174.75Z" fill="white"/>
<circle cx="1221" cy="421" r="125" fill="white"/>
</g>
<defs>
<clipPath id="clip0_122_2">
<rect width="2000" height="2000" fill="white"/>
</clipPath>
</defs>
</svg>
