<svg width="1500" height="1500" viewBox="0 0 1500 1500" fill="none" xmlns="http://www.w3.org/2000/svg">
<g clip-path="url(#clip0_122_23)">
<path d="M905.5 578.5C905.5 625.167 894.25 668.917 871.75 709.75C850.083 750.583 815.5 783.5 768 808.5C721.333 833.5 662.167 846 590.5 846H444.25V1181H269.25V308.5H590.5C658 308.5 715.5 320.167 763 343.5C810.5 366.833 845.917 398.917 869.25 439.75C893.417 480.583 905.5 526.833 905.5 578.5ZM583 704.75C631.333 704.75 667.167 693.917 690.5 672.25C713.833 649.75 725.5 618.5 725.5 578.5C725.5 493.5 678 451 583 451H444.25V704.75H583Z" fill="white"/>
<path d="M510.25 999.25C510.25 929.25 524 867.167 551.5 813C579.833 758.833 618.167 717.167 666.5 688C714.833 658.833 768.583 644.25 827.75 644.25C872.75 644.25 915.667 654.25 956.5 674.25C997.333 693.417 1029.83 719.25 1054 751.75V423H1231.5V1348H1054V1245.5C1032.33 1279.67 1001.92 1307.17 962.75 1328C923.583 1348.83 878.167 1359.25 826.5 1359.25C768.167 1359.25 714.833 1344.25 666.5 1314.25C618.167 1284.25 579.833 1242.17 551.5 1188C524 1133 510.25 1070.08 510.25 999.25ZM1055.25 1001.75C1055.25 959.25 1046.92 923 1030.25 893C1013.58 862.167 991.083 838.833 962.75 823C934.417 806.333 904 798 871.5 798C839 798 809 805.917 781.5 821.75C754 837.583 731.5 860.917 714 891.75C697.333 921.75 689 957.583 689 999.25C689 1040.92 697.333 1077.58 714 1109.25C731.5 1140.08 754 1163.83 781.5 1180.5C809.833 1197.17 839.833 1205.5 871.5 1205.5C904 1205.5 934.417 1197.58 962.75 1181.75C991.083 1165.08 1013.58 1141.75 1030.25 1111.75C1046.92 1080.92 1055.25 1044.25 1055.25 1001.75Z" fill="white"/>
<circle cx="971" cy="248" r="125" fill="white"/>
</g>
<defs>
<clipPath id="clip0_122_23">
<rect width="1500" height="1500" fill="white"/>
</clipPath>
</defs>
</svg>
